# xmcd CD database file
#
# Track frame offsets:
#	150
#	35618
#	69656
#	99262
#	131227
#	150473
#	166341
#
# Disc length: 2623 seconds
#
# Revision: 1
# Processed by: cddbd v1.4PL0 Copyright (c) Steve Scherf et al.
# Submitted via: CDex 1.51
#
DISCID=560a3d07
DTITLE=Medwyn Goodall - Innocence
DYEAR=1987
DGENRE=New Age
TTITLE0=Medwyn Goodall - Seascape
TTITLE1=Medwyn Goodall - Gold Dust
TTITLE2=Medwyn Goodall - Elysian Fields
TTITLE3=Medwyn Goodall - Blue Mountain
TTITLE4=Medwyn Goodall - Days Of Innocence
TTITLE5=Medwyn Goodall - Early Morning
TTITLE6=Medwyn Goodall - Still Waters
EXTD=YEAR: 1987
EXTT0=
EXTT1=
EXTT2=
EXTT3=
EXTT4=
EXTT5=
EXTT6=
PLAYORDER=
